<svg width="157" height="40" viewBox="0 0 157 40" fill="none" xmlns="http://www.w3.org/2000/svg">
<g clip-path="url(#clip0_59_1128)">
<path d="M3.51123 14.1423H11.4116V14.1097C11.2382 13.5653 10.8155 12.9447 10.1436 12.248C9.32001 11.5294 8.42051 11.1702 7.4451 11.1702C5.94956 11.1702 4.72494 11.9649 3.77125 13.5544C3.72796 13.685 3.64129 13.881 3.51123 14.1423ZM7.25001 8.00204H7.70527C9.28751 8.00204 10.8156 8.64437 12.2894 9.92903C13.0047 10.6258 13.4924 11.2355 13.7524 11.7581C14.5327 13.1516 14.9229 14.6213 14.9229 16.1673V16.6572C14.9229 16.962 14.912 17.1145 14.8904 17.1145H3.21873C3.47883 18.2685 3.90152 19.1394 4.48678 19.7274C5.35376 20.6854 6.35079 21.1644 7.47787 21.1644C8.88673 21.1644 10.068 20.4459 11.0217 19.0088C11.1951 18.6386 11.2926 18.4536 11.3143 18.4536C13.2 19.3028 14.1428 19.7383 14.1428 19.76C13.9911 20.1519 13.6551 20.718 13.135 21.4584C11.5526 23.3527 9.67767 24.2999 7.5102 24.2999H7.41266C5.20185 24.2999 3.28365 23.2983 1.65805 21.2951C0.552683 19.7491 0 18.0508 0 16.2V16.1347C0 13.5871 0.975366 11.4315 2.9261 9.66778C4.35657 8.55729 5.7979 8.00204 7.2501 8.00204H7.25001ZM51.3687 16.1346V16.2C51.3687 17.2669 51.6938 18.2576 52.344 19.1721C52.4741 19.3681 52.6691 19.5967 52.9293 19.858C52.9943 19.9233 53.0918 20.0104 53.2219 20.1193C53.5686 20.3806 53.8613 20.5656 54.0997 20.6745C54.7716 21.0011 55.4327 21.1644 56.0829 21.1644C57.4051 21.1644 58.5538 20.6419 59.5292 19.5967C59.8976 19.1612 60.1686 18.7475 60.342 18.3557C60.6671 17.6589 60.8297 16.9404 60.8297 16.2V16.1347C60.8297 14.8936 60.4287 13.7831 59.6267 12.8033C58.6297 11.7146 57.4267 11.1703 56.0179 11.1703C55.411 11.1703 54.7391 11.3445 54.0021 11.6928C53.677 11.8452 53.3519 12.0739 53.0268 12.3787C52.7233 12.6618 52.5391 12.8578 52.4741 12.9666C51.7372 13.9028 51.3688 14.9588 51.3688 16.1346H51.3687ZM48.2475 8.75028e-05H51.3687V10.0923C51.5421 9.89637 51.7696 9.67863 52.0514 9.43912C53.2218 8.48107 54.5765 8.00204 56.1154 8.00204C57.8711 8.00204 59.4858 8.57905 60.9597 9.73307C61.1331 9.88548 61.4149 10.1577 61.805 10.5496C62.542 11.3988 63.0838 12.2589 63.4306 13.1298C63.7974 14.1001 63.9847 15.1294 63.9833 16.1673C63.9833 17.5608 63.6474 18.8781 62.9755 20.1193C62.7587 20.5547 62.4553 21.012 62.0651 21.491C61.6533 21.9701 61.3173 22.3076 61.0572 22.5035C60.7321 22.743 60.4395 22.9499 60.1794 23.1241C58.9006 23.908 57.5676 24.2999 56.1805 24.2999H55.9854C55.4002 24.2999 54.6958 24.1801 53.8721 23.9406C53.4858 23.8214 53.1148 23.6569 52.7667 23.4507C52.5066 23.2983 52.214 23.0915 51.8889 22.8302C51.7155 22.656 51.5421 22.4709 51.3687 22.2749V23.908H48.2151V0L48.2475 8.75028e-05ZM70.0956 14.1423H77.996V14.1097C77.8226 13.5653 77.3999 12.9447 76.728 12.248C75.9044 11.5294 75.0049 11.1702 74.0295 11.1702C72.5339 11.1702 71.3093 11.9649 70.3556 13.5544C70.3123 13.685 70.2257 13.881 70.0956 14.1423ZM73.8344 8.00204H74.2896C75.8718 8.00204 77.3999 8.64437 78.8737 9.92903C79.589 10.6258 80.0767 11.2355 80.3368 11.7581C81.117 13.1516 81.5072 14.6213 81.5072 16.1673V16.6572C81.5072 16.962 81.4963 17.1145 81.4747 17.1145H69.8029C70.0631 18.2685 70.4857 19.1394 71.071 19.7274C71.938 20.6854 72.935 21.1644 74.0621 21.1644C75.4709 21.1644 76.6522 20.4459 77.6059 19.0088C77.7793 18.6386 77.8768 18.4536 77.8985 18.4536C79.7842 19.3028 80.727 19.7383 80.727 19.76C80.5753 20.1519 80.2393 20.718 79.7192 21.4584C78.1369 23.3527 76.262 24.2999 74.0946 24.2999H73.997C71.7862 24.2999 69.868 23.2983 68.2424 21.2951C67.1371 19.7491 66.5844 18.0508 66.5844 16.2V16.1347C66.5844 13.5871 67.5597 11.4315 69.5105 9.66778C70.941 8.55729 72.3823 8.00204 73.8345 8.00204H73.8344ZM95.9425 12.9665C95.8558 12.8577 95.6607 12.6617 95.3572 12.3786C95.0321 12.0738 94.707 11.8452 94.3819 11.6927C93.6449 11.3444 92.9622 11.1702 92.3337 11.1702C90.9465 11.1702 89.7652 11.7145 88.7898 12.8032C87.9663 13.783 87.5545 14.8935 87.5545 16.1346V16.2C87.5545 16.9403 87.717 17.6588 88.0422 18.3556C88.2155 18.7475 88.4864 19.1612 88.8548 19.5966C89.8302 20.6418 90.979 21.1643 92.3011 21.1643C92.9514 21.1643 93.6124 21.001 94.2843 20.6744C94.5227 20.5656 94.8154 20.3805 95.1622 20.1192C95.2272 20.0539 95.3247 19.9668 95.4548 19.8579C95.6742 19.642 95.8805 19.4129 96.0725 19.172C96.7011 18.2575 97.0153 17.2668 97.0153 16.1999V16.1346C96.842 15.612 96.4845 14.556 95.9426 12.9665L95.9425 12.9665ZM100.137 8.75028e-05V23.908H97.0155V22.275C96.8421 22.471 96.6687 22.656 96.4953 22.8302C96.1485 23.0915 95.8559 23.2984 95.6175 23.4508C95.2694 23.657 94.8984 23.8214 94.5121 23.9407C93.6885 24.1802 92.9949 24.3 92.4313 24.3H92.2037C90.8166 24.3 89.4727 23.9081 88.1722 23.1242C87.8899 22.933 87.6185 22.7258 87.3596 22.5036C87.0995 22.3077 86.7527 21.9702 86.3192 21.4912C85.929 21.0121 85.6256 20.5549 85.4088 20.1194C84.7369 18.8783 84.401 17.5609 84.401 16.1674C84.3996 15.1296 84.5869 14.1002 84.9537 13.1299C85.2788 12.259 85.8207 11.3989 86.5793 10.5497C86.9477 10.1578 87.2295 9.88561 87.4246 9.7332C88.8985 8.57918 90.5132 8.00217 92.2689 8.00217H92.3014C93.7969 8.00217 95.1408 8.4812 96.3329 9.43925C96.6147 9.67876 96.8422 9.8965 97.0156 10.0925V8.75028e-05H100.137ZM115.71 12.9665C115.623 12.8577 115.428 12.6617 115.125 12.3786C114.799 12.0738 114.474 11.8452 114.149 11.6927C113.412 11.3444 112.729 11.1702 112.101 11.1702C110.714 11.1702 109.532 11.7145 108.557 12.8032C107.734 13.783 107.322 14.8935 107.322 16.1346V16.2C107.322 16.9403 107.484 17.6588 107.809 18.3556C107.983 18.7475 108.254 19.1612 108.622 19.5966C109.598 20.6418 110.746 21.1643 112.068 21.1643C112.719 21.1643 113.38 21.001 114.052 20.6744C114.29 20.5656 114.583 20.3805 114.929 20.1192C114.995 20.0539 115.092 19.9668 115.222 19.8579C115.442 19.642 115.648 19.4129 115.84 19.172C116.468 18.2575 116.783 17.2668 116.783 16.1999V16.1346C116.609 15.612 116.252 14.556 115.71 12.9665L115.71 12.9665ZM119.904 8.75028e-05V23.908H116.783V22.275C116.609 22.471 116.436 22.656 116.263 22.8302C115.916 23.0915 115.623 23.2984 115.385 23.4508C115.037 23.657 114.666 23.8214 114.279 23.9407C113.456 24.1802 112.762 24.3 112.199 24.3H111.971C110.584 24.3 109.24 23.9081 107.94 23.1242C107.657 22.933 107.386 22.7258 107.127 22.5036C106.867 22.3077 106.52 21.9702 106.086 21.4912C105.696 21.0121 105.393 20.5549 105.176 20.1194C104.504 18.8782 104.168 17.5608 104.168 16.1673C104.167 15.1294 104.354 14.1001 104.721 13.1298C105.046 12.2589 105.588 11.3988 106.346 10.5496C106.715 10.1577 106.997 9.88551 107.192 9.73309C108.666 8.57907 110.28 8.00206 112.036 8.00206H112.068C113.564 8.00206 114.908 8.48109 116.1 9.43914C116.382 9.67865 116.609 9.89639 116.783 10.0924V8.75028e-05H119.904ZM126.959 14.1423H134.859V14.1097C134.686 13.5653 134.263 12.9447 133.591 12.248C132.768 11.5294 131.868 11.1702 130.893 11.1702C129.397 11.1702 128.173 11.9649 127.219 13.5544C127.176 13.685 127.089 13.881 126.959 14.1423ZM130.698 8.00204H131.153C132.735 8.00204 134.263 8.64437 135.737 9.92903C136.452 10.6258 136.94 11.2355 137.2 11.7581C137.98 13.1516 138.371 14.6213 138.371 16.1673V16.6572C138.371 16.962 138.36 17.1145 138.338 17.1145H126.666C126.926 18.2685 127.349 19.1394 127.934 19.7274C128.801 20.6854 129.798 21.1644 130.925 21.1644C132.334 21.1644 133.516 20.4459 134.469 19.0088C134.643 18.6386 134.74 18.4536 134.762 18.4536C136.648 19.3028 137.59 19.7383 137.59 19.76C137.439 20.1519 137.103 20.718 136.583 21.4584C135 23.3527 133.125 24.2999 130.958 24.2999H130.86C128.65 24.2999 126.731 23.2983 125.106 21.2951C124 19.7491 123.448 18.0508 123.448 16.2V16.1347C123.448 13.5871 124.423 11.4315 126.374 9.66778C127.804 8.55729 129.246 8.00204 130.698 8.00204H130.698ZM152.806 12.9665C152.719 12.8577 152.524 12.6617 152.221 12.3786C151.895 12.0738 151.57 11.8452 151.245 11.6928C150.508 11.3444 149.826 11.1702 149.197 11.1702C147.81 11.1702 146.629 11.7146 145.653 12.8033C144.83 13.7831 144.418 14.8936 144.418 16.1347V16.2C144.418 16.9403 144.58 17.6589 144.906 18.3556C145.079 18.7476 145.35 19.1612 145.718 19.5967C146.694 20.6418 147.843 21.1644 149.165 21.1644C149.815 21.1644 150.476 21.0011 151.148 20.6745C151.386 20.5656 151.679 20.3805 152.026 20.1192C152.091 20.0539 152.188 19.9668 152.318 19.8579C152.538 19.642 152.744 19.413 152.936 19.1721C153.565 18.2575 153.879 17.2668 153.879 16.1999V16.1346C153.705 15.612 153.348 14.556 152.806 12.9665L152.806 12.9665ZM157 8.75028e-05V23.908H153.879V22.275C153.705 22.471 153.532 22.656 153.359 22.8302C153.012 23.0915 152.719 23.2984 152.481 23.4508C152.133 23.657 151.762 23.8214 151.375 23.9407C150.552 24.1802 149.858 24.3 149.295 24.3H149.067C147.68 24.3 146.336 23.9081 145.036 23.1242C144.753 22.933 144.482 22.7258 144.223 22.5036C143.963 22.3077 143.616 21.9702 143.182 21.4912C142.792 21.0121 142.489 20.5549 142.272 20.1194C141.6 18.8783 141.264 17.5609 141.264 16.1674C141.263 15.1296 141.45 14.1002 141.817 13.1299C142.142 12.259 142.684 11.3989 143.443 10.5497C143.811 10.1578 144.093 9.88561 144.288 9.7332C145.762 8.57918 147.377 8.00217 149.132 8.00217H149.165C150.66 8.00217 152.004 8.4812 153.196 9.43925C153.478 9.67876 153.706 9.8965 153.879 10.0925V8.75028e-05H157Z" fill="white"/>
<path d="M25.8141 9.10498H25.9767C28.0791 9.10498 29.7698 9.74731 31.0486 11.032C32.284 9.74731 33.9855 9.10498 36.153 9.10498H36.6731C39.5342 9.10498 41.5608 10.1828 42.7529 12.3384C43.1213 13.2094 43.3056 14.0477 43.3056 14.8533V24.7496H40.2168L40.1843 24.717V14.9186C40.1843 13.7211 39.5341 12.9045 38.2336 12.4691C37.8435 12.3166 37.3341 12.2404 36.7056 12.2404H36.0879C34.3973 12.2404 33.3027 12.8066 32.8042 13.9388C32.673 14.2714 32.6068 14.6262 32.6091 14.984V24.717L32.5766 24.7496H29.5205L29.488 24.717V15.2452C29.488 14.0912 29.1087 13.2964 28.3501 12.861C27.7865 12.4472 27.0062 12.2404 26.0092 12.2404H25.7491C24.4486 12.2404 23.5166 12.4472 22.9531 12.861C22.2379 13.2965 21.8802 14.113 21.8802 15.3106V24.717L21.8477 24.7496H18.7916L18.7266 24.717V9.23563C18.739 9.23481 18.7512 9.2315 18.7624 9.22589C18.7735 9.22028 18.7835 9.21249 18.7916 9.20297H21.8477L21.8802 9.23563V10.1175C22.4438 9.81265 23.1699 9.52957 24.0585 9.26824C24.5353 9.1594 25.1206 9.10498 25.8141 9.10498Z" fill="url(#paint0_linear_59_1128)"/>
<path d="M43.3066 28.732V31.8674L7.03112 31.8674V28.6993L40.1799 28.6993V24.1689H43.3066V28.732ZM43.3066 36.8646V40H7.03112V36.8319H40.0896V33.7663H43.3066V36.8646Z" fill="url(#paint1_linear_59_1128)"/>
</g>
<defs>
<linearGradient id="paint0_linear_59_1128" x1="43.3056" y1="9.10498" x2="25.461" y2="48.6918" gradientUnits="userSpaceOnUse">
<stop stop-color="#FFF19B"/>
<stop offset="1" stop-color="#FF98FF"/>
</linearGradient>
<linearGradient id="paint1_linear_59_1128" x1="43.3066" y1="8.90785" x2="28.973" y2="48.0606" gradientUnits="userSpaceOnUse">
<stop stop-color="#FFF19B"/>
<stop offset="1" stop-color="#FF98FF"/>
</linearGradient>
<clipPath id="clip0_59_1128">
<rect width="157" height="40" fill="white"/>
</clipPath>
</defs>
</svg>
